<?xml version="1.0" standalone="no"?>
<!DOCTYPE svg PUBLIC "-//W3C//DTD SVG 20010904//EN"
 "http://www.w3.org/TR/2001/REC-SVG-20010904/DTD/svg10.dtd">
<svg version="1.0" xmlns="http://www.w3.org/2000/svg"
 width="1280.000000pt" height="1210.000000pt" viewBox="0 0 1280.000000 1210.000000"
 preserveAspectRatio="xMidYMid meet">
<metadata>
Created by potrace 1.15, written by Peter Selinger 2001-2017
</metadata>
<g transform="translate(0.000000,1210.000000) scale(0.100000,-0.100000)"
fill="#000000" stroke="none">
<path d="M5302 12090 c-346 -44 -625 -222 -795 -508 -97 -164 -145 -329 -154
-528 -13 -295 62 -525 256 -791 l89 -122 -89 -168 c-128 -238 -168 -333 -261
-603 -88 -257 -130 -461 -143 -690 -4 -66 0 -288 10 -520 19 -454 17 -694 -8
-752 -8 -20 -35 -60 -59 -90 -62 -76 -142 -218 -337 -597 -198 -383 -381 -721
-489 -901 -41 -69 -76 -128 -79 -133 -7 -12 25 -20 52 -13 13 3 40 20 59 36
40 36 134 72 270 106 408 99 991 12 1837 -275 713 -242 1055 -434 1420 -800
148 -149 229 -242 454 -521 251 -312 483 -564 580 -629 120 -81 123 -98 23
-130 -208 -66 -427 -166 -574 -264 -426 -281 -727 -855 -809 -1543 -26 -217
-29 -467 -10 -837 10 -186 15 -340 13 -343 -7 -6 -526 -32 -803 -40 -808 -23
-1572 129 -2315 463 -855 384 -1321 844 -1381 1363 -15 137 -6 536 16 680 53
340 162 627 505 1325 241 491 387 820 426 963 26 93 10 96 -54 9 -133 -181
-422 -713 -572 -1053 -197 -444 -385 -977 -454 -1285 -65 -290 -75 -661 -25
-949 19 -109 58 -257 89 -336 84 -211 289 -502 524 -743 130 -133 207 -193
301 -235 57 -26 105 -61 105 -77 0 -23 -252 -44 -965 -79 -1046 -52 -1832
-125 -1936 -181 -89 -47 163 -107 661 -158 1180 -121 1819 -136 5880 -136
3114 0 4042 14 4845 75 564 43 1143 106 1305 141 49 11 90 34 90 50 0 70 -773
157 -1825 204 -665 30 -1005 60 -1005 89 0 17 81 108 194 221 146 145 248 294
331 482 105 240 150 464 149 743 -1 493 -162 846 -504 1107 -171 130 -342 209
-552 258 -65 14 -120 30 -123 35 -3 4 25 68 61 141 122 247 153 385 119 535
-57 258 -210 581 -391 825 -112 151 -147 206 -141 222 3 8 38 24 79 36 160 48
267 122 482 331 151 147 241 253 274 321 25 51 22 86 -24 277 -28 122 -31 217
-7 309 24 96 149 342 318 623 185 308 250 427 318 582 127 287 182 535 207
923 24 388 10 528 -79 794 -94 278 -114 401 -131 831 -16 415 -53 543 -195
685 -61 61 -195 157 -295 213 -113 62 -129 65 -450 72 -343 8 -347 9 -480 109
-346 261 -889 454 -1409 501 -165 16 -552 8 -731 -15 -120 -14 -557 -80 -611
-91 -23 -4 -36 7 -115 98 -239 279 -394 355 -739 363 -82 2 -183 0 -223 -5z
m2784 -634 c311 -36 579 -118 887 -272 314 -156 550 -328 813 -589 256 -254
418 -475 568 -775 129 -259 206 -498 243 -765 24 -166 23 -695 -1 -910 -37
-342 -87 -525 -142 -525 -7 0 -28 16 -47 36 -44 47 -55 41 -140 -69 -207 -268
-381 -678 -477 -1122 -53 -247 -64 -294 -81 -350 -25 -83 -51 -109 -100 -101
-119 19 -130 -74 -23 -195 55 -61 74 -94 74 -129 0 -72 -243 -211 -539 -309
-195 -65 -228 -59 -431 76 -305 203 -641 484 -1245 1043 -688 637 -1121 960
-1599 1191 -291 140 -392 162 -696 148 -85 -3 -216 -8 -290 -10 l-135 -4 -49
130 c-105 281 -121 401 -113 810 9 424 32 575 120 799 54 138 174 372 211 411
41 43 38 43 216 6 114 -24 357 -51 460 -51 100 0 195 25 310 81 331 160 520
376 599 684 34 131 41 208 41 456 l0 236 153 31 c134 28 240 43 397 56 119 10
892 -3 1016 -18z"/>
<path d="M9024 8126 c-29 -13 -155 -86 -280 -161 -355 -213 -525 -298 -784
-390 -220 -78 -386 -170 -474 -265 -132 -141 -121 -306 30 -469 229 -249 854
-464 1336 -460 144 1 183 12 224 66 99 130 160 427 171 838 12 484 -55 865
-154 865 -10 0 -41 -11 -69 -24z"/>
</g>
</svg>
