<svg width="219" height="37" viewBox="0 0 219 37" fill="none" xmlns="http://www.w3.org/2000/svg">
<path d="M0.0681818 36L5.86364 1.09091H15.3409L13.0227 15.2045H13.5L26.3182 1.09091H37.3636L23.0455 16.6364L31.8409 36H20.5227L14.9318 22.9091L11.0455 27.0682L9.54545 36H0.0681818ZM49.6534 1.09091L43.858 36H34.3807L40.1761 1.09091H49.6534ZM84.3494 1.09091L78.554 36H70.6449L61.0994 17.6591H60.8949L57.8267 36H48.3494L54.1449 1.09091H62.1903L71.5994 19.3636H71.8722L74.8722 1.09091H84.3494ZM119.651 19.1591C119.014 22.9545 117.753 26.1364 115.866 28.7045C113.98 31.2727 111.69 33.2102 108.997 34.517C106.304 35.8239 103.423 36.4773 100.355 36.4773C97.0824 36.4773 94.2415 35.767 91.8324 34.3466C89.4233 32.9261 87.6676 30.8466 86.5653 28.108C85.4631 25.3693 85.2415 22.0227 85.9006 18.0682C86.5142 14.2727 87.7642 11.0795 89.6506 8.48864C91.5369 5.89773 93.8381 3.9375 96.554 2.60795C99.2699 1.27841 102.173 0.613635 105.264 0.613635C108.514 0.613635 111.338 1.32954 113.736 2.76136C116.145 4.19318 117.895 6.28977 118.986 9.05114C120.088 11.8125 120.31 15.1818 119.651 19.1591ZM110.105 18.0682C110.423 16.0682 110.446 14.3864 110.173 13.0227C109.901 11.6477 109.327 10.6136 108.452 9.92045C107.577 9.21591 106.401 8.86364 104.923 8.86364C103.241 8.86364 101.753 9.27273 100.457 10.0909C99.1619 10.9091 98.0881 12.0852 97.2358 13.6193C96.3835 15.1534 95.7869 17 95.446 19.1591C95.0824 21.1818 95.0483 22.8636 95.3438 24.2045C95.6506 25.5455 96.2528 26.5511 97.1506 27.2216C98.0597 27.892 99.2415 28.2273 100.696 28.2273C102.355 28.2273 103.821 27.8295 105.094 27.0341C106.378 26.2386 107.44 25.0852 108.281 23.5739C109.134 22.0625 109.741 20.2273 110.105 18.0682ZM127.036 1.09091H138.831L143.672 20.8636H144.081L155.467 1.09091H167.263L161.467 36H152.195L155.536 15.8182H155.263L144.217 35.7273H138.626L134.195 15.6818H133.922L130.513 36H121.24L127.036 1.09091ZM181.232 1.09091L175.436 36H165.959L171.754 1.09091H181.232ZM195.473 1.09091L199.496 11.25H199.768L207.268 1.09091H218.246L204.95 18.5455L212.859 36H202.291L198.064 25.6364H197.791L190.155 36H179.109L192.746 18.5455L185.246 1.09091H195.473Z" fill="white"/>
</svg>
