
<svg viewBox="0 0 58 58" xmlns="http://www.w3.org/2000/svg" width="58" height="58">
    <style>
    /***************************************************
 * Generated by SVG Artista on 12/14/2024, 1:20:18 PM
 * MIT license (https://opensource.org/licenses/MIT)
 * W. https://svgartista.net
 **************************************************/


@-webkit-keyframes animate-svg-fill-14 {
  0% {
    fill: transparent;
  }

  100% {
    fill: rgb(59, 151, 211);
  }
}

@keyframes animate-svg-fill-14 {
  0% {
    fill: transparent;
  }

  100% {
    fill: rgb(59, 151, 211);
  }
}

@-webkit-keyframes animate-svg-fill-15 {
  0% {
    fill: transparent;
  }

  100% {
    fill: rgb(59, 151, 211);
  }
}

@keyframes animate-svg-fill-15 {
  0% {
    fill: transparent;
  }

  100% {
    fill: rgb(59, 151, 211);
  }
}

.svg-elem-14 {
  -webkit-animation: animate-svg-fill-14 1.5s cubic-bezier(0.47, 0, 0.745, 0.715) 1.8s both;
          animation: animate-svg-fill-14 1.5s cubic-bezier(0.47, 0, 0.745, 0.715) 1.8s both;
            animation-iteration-count: infinite;
}

.svg-elem-15 {
  -webkit-animation: animate-svg-fill-15 1s cubic-bezier(0.47, 0, 0.745, 0.715) 2s both;
  
          animation: animate-svg-fill-15 1s cubic-bezier(0.47, 0, 0.745, 0.715) 2s both;
          animation-iteration-count: infinite;
}

    </style>
  <g id="Page-1" fill="none" fill-rule="evenodd"><g id="014---Sleepy-Panda" fill-rule="nonzero"><path id="Shape" d="m45 53c-.0546881 2.7931564-2.3463984 5.0224466-5.14 5h-13.27c-.5083718-.0010076-1.0053831-.1504586-1.43-.43-.1420678-.0989627-.275843-.2093272-.4-.33-.6996697-.7022762-.9371022-1.7423172-.6115134-2.6786512.3255889-.936334 1.1570752-1.6046829 2.1415134-1.7213488 2.3239372-.2331788 4.5921787-.8551705 6.71-1.84 4-2 4-3 8-3h.09c1.96 0 3.91 1.05 3.91 5z" fill="#56595e" class="svg-elem-1"></path><path id="Shape" d="m16.64 57.93c-.2570845.0487903-.5183362.072236-.78.07h-13.27c-1.36404057-.0108453-2.48586821-1.0778065-2.5650417-2.4395906s.91144837-2.5515622 2.2650417-2.7204094c.39-.05.82-.1 1.27-.18 1.85 2.41 5.67 4.83 13.08 5.27z" fill="#393f4a" class="svg-elem-2"></path><path id="Shape" d="m41.58 37.82c-.2120073-1.3689502-.5741922-2.7103759-1.08-4-1.5321302-3.7998021-4.6308132-6.7526647-8.5-8.1-1.7723811-.6604586-3.6142699-1.116737-5.49-1.36-1.459417-1.64571-3.3787039-2.8160918-5.51-3.36v2s-1-1-4-1c.5564171.6373694.9052622 1.4292477 1 2.27-.9881102.1626962-1.954383.4378156-2.88.82-3.1405237 1.3398517-5.57726048 3.9325106-6.72 7.15-.30020366.7422496-.56057405 1.4999942-.78 2.27.74962449-.3324619 1.55996792-.5061069 2.38-.51 2.9840565.0005329 5.5142137 2.1939229 5.9380884 5.1477211s-1.3873715 5.7701864-4.2508583 6.609851c-2.86348678.8396646-5.90884659-.5526136-7.1472301-3.2675721-1.26 1.25-2.54 2.23-2.54 6.07.06231285 1.4995348.60975081 2.9383141 1.56 4.1 1.85 2.41 5.67 4.83 13.08 5.27.79 0 1.62.07 2.49.07 2.00787.0049 4.0133487-.1388259 6-.43-.1420678-.0989627-.275843-.2093272-.4-.33-.6996697-.7022762-.9371022-1.7423172-.6115134-2.6786512.3255889-.936334 1.1570752-1.6046829 2.1415134-1.7213488 2.3341673-.2298694 4.6128181-.8519343 6.74-1.84 4-2 4-3 8-3h.09c.5978063-1.3090107.9081086-2.7309455.91-4.17.0288781-2.0115692-.1116179-4.0219997-.42-6.01zm-14.58 10.18c-3.3137085 0-6-2.6862915-6-6s2.6862915-6 6-6 6 2.6862915 6 6-2.6862915 6-6 6z" fill="#ecf0f1" class="svg-elem-3"></path><path id="Shape" d="m16 40c.0011067 2.8236772-1.9667629 5.2660153-4.7260589 5.8655482-2.75929597.5995329-5.56322164-.8060016-6.7339411-3.3755482 1.23619272-1.1255907 2.02450604-2.6596058 2.22-4.32.20043438-1.2343619.47087057-2.4563329.81-3.66.76502877-.3392836 1.59311716-.5130799 2.43-.51 3.3137085 0 6 2.6862915 6 6z" fill="#393f4a" class="svg-elem-4"></path><path id="Shape" d="m15.07 25.09c-3.1405237 1.3398517-5.57726048 3.9325106-6.72 7.15-1.7107005-1.0733343-2.60773955-3.0704104-2.2737971-5.0621496.33394244-1.9917392 1.83329082-3.5870281 3.80051907-4.0437071 1.96722823-.456679 4.01603603.3149289 5.19327803 1.9558567z" fill="#fb7b76" class="svg-elem-5"></path><path id="Shape" d="m43 29c-.0010936 1.9310523-.9315354 3.7435529-2.5 4.87-1.5202565-3.8188289-4.6206581-6.7915669-8.5-8.15 1.4591701-2.1999413 4.1848044-3.1877097 6.7146046-2.4333692 2.5298003.7543404 4.2693548 3.0735469 4.2853954 5.7133692z" fill="#fb7b76" class="svg-elem-6"></path><path id="Shape" d="m57 51.26c-.3048058-.1727609-.6496472-.2624197-1-.26h-2c-1.72 0-3.45 1-3.93 4.8-.0557454.552159.1204415 1.102656.4864258 1.5198401.3659843.4171842.8888571.663543 1.4435742.6801599l-12.14.000168c2.7936016.0222786 5.0853119-2.2070116 5.14-5.000168 0-3.91-2-4.93-3.91-5 .5978063-1.3090107.9081086-2.7309455.91-4.17.0283169-2.008234-.1121774-4.0152958-.42-6 2.1858513.1377619 4.344226.5613682 6.42 1.26 2.3098491.7513339 4.379859 2.1002904 6 3.91.2104479.2362838.4042467.4868857.58.75 1.5534805 2.1980542 2.3978803 4.8184847 2.42 7.51z" fill="#d1d4d1" class="svg-elem-7"></path><path id="Shape" d="m58 39c.0026732 2.1548771-1.3755384 4.06906-3.42 4.75-.1757533-.2631143-.3695521-.5137162-.58-.75-1.620141-1.8097096-3.6901509-3.1586661-6-3.91-.004853-.0298037-.004853-.0601963 0-.09 0-2.7614237 2.2385763-5 5-5s5 2.2385763 5 5z" fill="#56595e" class="svg-elem-8"></path><path id="Shape" d="m58 53v3c0 1.1045695-.8954305 2-2 2h-4c-.5669756.0028428-1.108514-.2350961-1.4899078-.6546293s-.5667976-.9812308-.5100922-1.5453707c.49-3.8 2.22-4.8 3.94-4.8h2c1.1045695 0 2 .8954305 2 2z" fill="#56595e" class="svg-elem-9"></path><circle id="Oval" cx="27" cy="42" fill="#393f4a" r="6" class="svg-elem-10"></circle><g fill="#2c2f38"><path id="Shape" d="m12 42h-2c-.55228475 0-1-.4477153-1-1s.44771525-1 1-1h2c.5522847 0 1 .4477153 1 1s-.4477153 1-1 1z" class="svg-elem-11"></path><path id="Shape" d="m27 43h-2c-.5522847 0-1-.4477153-1-1s.4477153-1 1-1h2c.5522847 0 1 .4477153 1 1s-.4477153 1-1 1z" class="svg-elem-12"></path><path id="Shape" d="m16 49c-.265803.0015368-.5212812-.1028135-.71-.29l-1-1c-.3921222-.3921222-.3921222-1.0278778 0-1.42s1.0278778-.3921222 1.42 0l.49.49 1.35-.67c.3211808-.1932607.7234705-.1906728 1.0421383.0067041.3186678.1973768.5001928.5563928.4702434.9300368s-.2663431.6991617-.6123817.8432591l-2 1c-.1379993.0748719-.2930224.1127664-.45.11z" class="svg-elem-13"></path></g><path id="Shape" d="m38 18h-10c-.8485805-.0006612-1.6043661-.5367509-1.8854964-1.33741s-.0263968-1.6915659.6354964-2.22259l5.55-4.44h-4.3c-1.1045695 0-2-.8954305-2-2s.8954305-2 2-2h10c.8485805.00066116 1.6043661.53675085 1.8854964 1.33740998.2811303.80065912.0263968 1.69156589-.6354964 2.22259002l-5.55 4.44h4.3c1.1045695 0 2 .8954305 2 2s-.8954305 2-2 2z" fill="#3b97d3" class="svg-elem-14"></path><path id="Shape" d="m56 12h-10c-.8485805-.0006612-1.6043661-.5367509-1.8854964-1.33741s-.0263968-1.69156587.6354964-2.22259l5.55-4.44h-4.3c-1.1045695 0-2-.8954305-2-2s.8954305-2 2-2h10c.8485805.00066116 1.6043661.53675085 1.8854964 1.33740998.2811303.80065912.0263968 1.69156589-.6354964 2.22259002l-5.55 4.44h4.3c1.1045695 0 2 .8954305 2 2s-.8954305 2-2 2z" fill="#3b97d3" class="svg-elem-15"></path></g></g>
</svg>