<svg width="226" height="43" viewBox="0 0 226 43" fill="none" xmlns="http://www.w3.org/2000/svg">
<path d="M22 0L26.9393 14.8561H42.9232L29.992 24.0377L34.9313 38.8939L22 29.7123L9.06872 38.8939L14.008 24.0377L1.07676 14.8561H17.0607L22 0Z" fill="#FFEA06"/>
<path d="M204 0L208.939 14.8561H224.923L211.992 24.0377L216.931 38.8939L204 29.7123L191.069 38.8939L196.008 24.0377L183.077 14.8561H199.061L204 0Z" fill="#FFEA06"/>
<path d="M157 0L161.939 14.8561H177.923L164.992 24.0377L169.931 38.8939L157 29.7123L144.069 38.8939L149.008 24.0377L136.077 14.8561H152.061L157 0Z" fill="#FFEA06"/>
<path d="M113 0L117.939 14.8561H133.923L120.992 24.0377L125.931 38.8939L113 29.7123L100.069 38.8939L105.008 24.0377L92.0768 14.8561H108.061L113 0Z" fill="#FFEA06"/>
<path d="M69 0L73.9393 14.8561H89.9232L76.992 24.0377L81.9313 38.8939L69 29.7123L56.0687 38.8939L61.008 24.0377L48.0768 14.8561H64.0607L69 0Z" fill="#FFEA06"/>
</svg>
